<svg width="20" height="20" viewBox="0 0 20 20" fill="none" xmlns="http://www.w3.org/2000/svg">

<symbol id="check">
  <path fill="currentColor" d="M14.59 5.58L8 12.17L4.41 8.59L3 10L8 15L16 7L14.59 5.58ZM10 0C4.48 0 0 4.48 0 10C0 15.52 4.48 20 10 20C15.52 20 20 15.52 20 10C20 4.48 15.52 0 10 0ZM10 18C5.58 18 2 14.42 2 10C2 5.58 5.58 2 10 2C14.42 2 18 5.58 18 10C18 14.42 14.42 18 10 18Z" />
</symbol>

<symbol id="edit">
<path fill="currentColor" d="M0 14.25V18H3.75L14.81 6.94L11.06 3.19L0 14.25ZM17.71 4.04C18.1 3.65 18.1 3.02 17.71 2.63L15.37 0.289998C14.98 -0.100002 14.35 -0.100002 13.96 0.289998L12.13 2.12L15.88 5.87L17.71 4.04Z" />

</symbol>

<symbol id="delete">
<path fill="currentColor" d="M6 19C6 20.1 6.9 21 8 21H16C17.1 21 18 20.1 18 19V7H6V19ZM19 4H15.5L14.5 3H9.5L8.5 4H5V6H19V4Z" />
</symbol>

<symbol id="submit">
<path fill="currentColor" d="M5.99997 11.17L1.82997 7.00003L0.409973 8.41003L5.99997 14L18 2.00003L16.59 0.590027L5.99997 11.17Z" />
</symbol>

<symbol id="cancel">
<path fill="currentColor" d="M14 1.41L12.59 0L7 5.59L1.41 0L0 1.41L5.59 7L0 12.59L1.41 14L7 8.41L12.59 14L14 12.59L8.41 7L14 1.41Z"/>

</symbol>

</svg>




